<svg xmlns="http://www.w3.org/2000/svg" xmlns:xlink="http://www.w3.org/1999/xlink" viewBox="0 0 324.01 512"><defs><style>.cls-1{fill:#fff;fill-rule:evenodd;}.cls-2{fill:#19398a;}.cls-3{fill:#b6c654;}.cls-4{fill:url(#linear-gradient);}</style><linearGradient id="linear-gradient" x1="-166.04" y1="590.44" x2="-62.3" y2="590.5" gradientTransform="translate(512.09 -1418.31) scale(2.68)" gradientUnits="userSpaceOnUse"><stop offset="0" stop-color="#b6c654"/><stop offset="0.28" stop-color="#b6c654"/><stop offset="0.32" stop-color="#cfcd44"/><stop offset="0.38" stop-color="#f6d11b"/><stop offset="0.46" stop-color="#fcc90b"/><stop offset="0.55" stop-color="#fbc80b"/><stop offset="0.65" stop-color="#febb32"/><stop offset="0.65" stop-color="#f6b13f"/><stop offset="0.69" stop-color="#eb1e7d"/><stop offset="0.77" stop-color="#e8645a"/><stop offset="0.85" stop-color="#e59b3f"/><stop offset="0.92" stop-color="#e3c32b"/><stop offset="0.97" stop-color="#e2db1e"/><stop offset="1" stop-color="#e2e41a"/></linearGradient></defs><g id="Layer_2" data-name="Layer 2"><g id="Layer_1-2" data-name="Layer 1"><path class="cls-1" d="M272.39,393.7c6.31-9.2,33.78-7.9,43.73,2.31a55.08,55.08,0,0,0-6.28-2.1c-7.11-1.5-14.23-3.69-21.4-3.89C283.13,389.86,277.75,392.37,272.39,393.7Z"/><path class="cls-2" d="M185.76,59.62a16,16,0,0,1,4,.35,2.69,2.69,0,0,0,.53.06c.5.23.55.94,1.32.91.83-.58,2.24-.54,3.63-.48,1,.51,1.42,1.66,2.2,2.39.51-2,3.41-2.54,5.07-1.45,1.12.74.53,2,1.69,2.44-.26-1.69.79-2,1.8-2.4a2.07,2.07,0,0,1,1.52.84c.06.08.47,1.1.47,1.1.46,1.54.84,3.12,1.39,4.65.4,1.1.54,2.43.9,3.07h0v1.21a8.81,8.81,0,0,1-2.91.73c.32.92,1,1.39,1.21,2.42-2,1.52-4.6-.8-6.54,0,.07,1.71,1.56,2,2,3.4-1.28,2.31-3.94.32-6.05.24-1-.06-1.78.65-2.69.47s-1.71-1.84-2.42-1c-.22.9,2.65,1.39,2.18,2.65,3.7-.2,6.2,3.11,9.68,3.41.9,0,2-.4,2.91-.24,2.71.45,5.25,5,5.52,12.09,0-1.6,1.27-11,1.27-12.59,1.66-.67,2.79-1.91,4.37-2.67.22-2.9.41-5.9.7-8.7-2.7-.46-5.58-.84-8.3-1.33-.71-2.37-1.91-8.77-4.63-10l.11,0c-2.25-1.26-5.9-1.33-8.34-1.46-1.71-.09-3.44-.11-5.12-.06-.78,0-2.38.38-3.11.1a8.12,8.12,0,0,0-4.51-.78c-.56.29-.73.5-.77.62-.37.39-.86.89-.2,1.09.12-.61.65-.79,1.2-1.07m-26.4,5.66c-.39-2.58,1.42-2.88,2.88-3.6l1.58-.1c1.24.17,1.88,1.65,2.59,2.26a4.57,4.57,0,0,1,1.36-2.58c.95-.08,1.93-.21,2.89-.32,1.49.24,1.37,2.07,2.53,2.65-.19-3,4.21-3.75,6.05-2a12.38,12.38,0,0,0-.49-2.18l-21,2.18a6.69,6.69,0,0,0-2.71.26c2.61,0,3,2.17,4.35,3.38M118.45,173.14a2,2,0,0,1-.09.25c-.72,2.14-1.43,4.27-2.16,6.41-.21.62-.31,1.09-.44,1.36a89.5,89.5,0,0,0,13.6-2.1c.84-.2,1.64-.47,2.48-.71,1.1-.46,2.41-1,3.3-1.37-.07-.7-.09-1.41-.13-1.65a57.21,57.21,0,0,0-1.2-6.88l-.93.3c-2.56.83-5.15,1.58-7.77,2.16a38.07,38.07,0,0,1-6.18,1.21c-.18.34-.3.67-.48,1m106.84,78.18a15.35,15.35,0,0,1-.51-2.91c-5.63-8.16-10.51-16.7-15.77-24.95-1.74-2.77-3.4-6-5.29-8.48-1.78-2.29-4.54-4.29-6.8-6.55-6.79-6.81-14-12.91-21.09-19.12,5.33-10.46,10.29-21.79,16-31.73,1.93-3.33,4.48-6.86,5.81-10.19,1-2.57,1.46-5.82,2.2-8.71,2.23-8.94,4.12-17.26,6.52-26.16,1.4-1.12,2.74-2.28,2.65-4.85-2-.25-3-1.55-4.35-2.42-3.75,1.77-11.19,1-11.86-2.41-.89-4.68,5.74-5.06,6.3-8.24-1.71,0-4.79,1.54-5.56.25,1.57-1.17,3.58-1.93,5.08-3.17-3-2.52-7.26-3.72-10.89-5.57-.5-3.81-2.35-6.2-2.2-10.65.46-1.23,1.15-1.88,1.52-3.56a2.43,2.43,0,0,0-.23-2.09c-1.14,0-2.09.19-2.74-.16-1.27-1.24,0-3.7-1-5.34-.53,1.74-.68,3.86-1.69,5.09a7.18,7.18,0,0,0-1-3.15c.26,3.63,1.41,6.36,2.2,9.45-2.71-.44-3.71.81-6,.73a1.41,1.41,0,0,1-.78,1.45c-5.45,1.87-12.05,2.59-17,5.08-2.19-2.28-2.75-6.26-4.8-8.71.91,3.67,3,6.55,4.1,10.67,7.17-2,12.89-5.35,20.58-6.79a3.73,3.73,0,0,1,3.9-.74c.16,1.33,1.14,2.94.46,4.36-2.78-.4-1.11,0-2.88.51-.6-.33-.72.48-1.78.63a10.64,10.64,0,0,0-3,1.13c-1.2.53-1,.64-2.19.8a5.52,5.52,0,0,1-1,.49,12.11,12.11,0,0,0-2.42.71c-1.74.52-1.1.34-2.59.75-2.27.62-.9.24-3.28.87a15.9,15.9,0,0,0-3.61.89,38,38,0,0,0-4.83-5.81c-.76.67-1-1.18-1.22-2.88-2-.69-2.63-2.72-2.68-5.35-.67-.12-1.67,1.52-2.89,1.69-1.88-.76-3.24-3.28-5.81-3.62-2.09-.31-5.35.8-8,1.21a49.88,49.88,0,0,0-5.63.82c-12.74,1.21-56.58,8.33-64.63,9.59,8.42-.75,55.93-6.45,66.44-8.81,4.65-.37,9.48-1.7,13.76-1.6a3.13,3.13,0,0,1,.68,2.41C139,78.39,132.11,79,125.23,80.06c-4,.6-16.54,3.17-18.91,3.63-10.17,2-21.71,4.14-32.93,6.06-3.27.57-6.68,1.09-9.93,1.7-19.4,3.54-40,5-60.3,2.66-1.63-.24-2.27.11-2.59.41a3.57,3.57,0,0,1,1.55-2.08,37.35,37.35,0,0,1,8.52-2.93h1.45c.58-.51-.91-.22-1.45-.24-2.51-.08-6.66,0-8.48,0A6.56,6.56,0,0,0,.62,91.94C.55,92.07,0,94.71,0,94.85v.24c.83,4,1.42,8.23,3.61,10.91,7.06.09,13.51,2.08,20.12,2.15,5.37.08,10.76-.73,16-1,4.31-.19,8.64-.12,13.06-.47,7.69-.62,15.55-2.61,23.26-3.87C99.78,99,123.16,94.69,145.34,90c2.14-2.23,3.72-5.49,8.46-3.87,1.76,3.74,3.17,7.83,4.62,11.87,3.55,1.08,6.19,3.9,10.66,2.19-2-9.17,6.51-10,12.09-12.84-.3.91.2,1.26.25,1.94,5,.09,4.34,5.84,6.52,8.71-4.82-1.75-9.72.21-12.81,1.93-1.18.65-3.62,2-3.87,2.93-.53,1.89.79,5.88,1.19,8.71.44,3.08,1.4,6.46,1.24,9-.23,3-2.11,6.22-2.94,8.73-1.05,3.26-1.85,6-2.64,9.2-6.53,5.91-12.05,12.82-19.14,18.17-.3-1-.43-2.18-.66-3.25a13.71,13.71,0,0,1-2.79,1.95.35.35,0,0,0-.16.09l-.64.32a9.18,9.18,0,0,1,.5,1.72,22.56,22.56,0,0,1,1.27,3.59,4,4,0,0,0,.43-.29c.51-.45,1-.91,1.52-1.38a5.88,5.88,0,0,1,1.24-1.55,2.31,2.31,0,0,1-.89,2.91,13.12,13.12,0,0,1-1.92,1.87,43,43,0,0,1,1,10.27c-9.32,6.9-22.36,9.32-33.72,10-3.34.19-6.59-2.59-9.21-4.42-2.22-1.54-4.42-3.17-6.59-4.83a.91.91,0,0,1-.1-.1c-2.9-2.07-5.54-4.65-6.12-8.43a.42.42,0,0,0,0-.15s0,0,0,0a11.74,11.74,0,0,1,.14-4,30,30,0,0,1,.37,3.27,12.59,12.59,0,0,1,.69,1.8c.91,3,3.52,4.57,5.86,6.34A126.24,126.24,0,0,0,110,179.94c1.44.84,2.47,1.48,4.07,1.4v0s0,0,0,0c1-3,2-6.12,3.09-9.12-.65,0-1.28.16-1.91.19-4.29.23-8.79,2.1-12.23-.82a3.57,3.57,0,0,1-2.07-2.39c1.62.11,2.43,1,3.34,1.85.53.18,1,.31,1.45.41a9.62,9.62,0,0,0,1.18.18c2.47,0,4.77-.17,7-.37a.75.75,0,0,1,.3,0c1.19-.22,2.3-.38,3.4-.52.64-2,1.31-3.94,2-5.91.09-.22.12-.4.2-.57l-4.58,1c-4.53,1.21-9.06,2.35-13.63,3.43a6.26,6.26,0,0,1-2.51,0,.28.28,0,0,1-.12,0s-.07,0-.07-.07a4.49,4.49,0,0,1-2.76-2.07,8.47,8.47,0,0,1-.46-1.33,7.48,7.48,0,0,1-.84-6c-.17,3.86,2.46,7.55,5,8.14a14.87,14.87,0,0,0,3.16-.62c.65-.14,1.3-.31,1.94-.47l.07,0h.07c4.68-1.14,9.28-2.34,13.9-3.63,6.37-1.79,12.73-3.66,19-6l2.13-.83a9.08,9.08,0,0,1,.9-.34c1-.41,1.93-.86,2.88-1.31,0-.05.07-.05.09-.07l1.86-1c.45-.29.94-.56,1.37-.89a2.58,2.58,0,0,1,.51-.36,3.53,3.53,0,0,0-.48-2.42c-.86.22-2.17,1-3,1.19a29.25,29.25,0,0,1-4.3.83c-.6-2.43-2-4.08-2.63-6.5,3.29-2,7.6-2.91,7.74-8-4.34-1.41-6.6-3.31-10.6-5a49.11,49.11,0,0,1-3.41-5.65c-1.65-2.64-1.16-1.44-3.44-4.32a20.62,20.62,0,0,0-5.88-5.45,41.27,41.27,0,0,0-6.73-2.31c-2.23-.6-4.47-1.68-6.76-1.7a29,29,0,0,0-5.33,1c-5,1-6.53,1.71-9.71,4.12A25.33,25.33,0,0,0,89.12,121c-.37.5-1.38,1.67-1.7,2.19-.69,1.19-1.34,1.65-1.92,2.74-1,2-1,2.2-1.71,3.55a37.79,37.79,0,0,0-3.82,11c.09,11.78,6.88,16.45,9.15,26.05.16-1.3-.73-2.82,0-3.87.8,1.21.5,3.55.74,5.33,1.81,2.06,4.92,2.84,5.83,5.8-2.3-.41-4.14-3.88-5.93-4,2.87,2.43,5.46,5.12,8.59,6.68.46.24,1.15,0,1.68.25,2.65,1.21,4.63,4.39,7,5.09,1.1.33,1.38-.16,2.2,1-5.48.94-7.08-6.42-10.37-4.9-2.46,1.12-3,.75-5.88,1.21-.45,2.28,2.45,5.61,2.85,7.77,1.89,2.72.08,4,1.7,7a26.75,26.75,0,0,0,4.19,2.89c.83,5.74.27,11.82,2.17,17.45,2.13,4.17,7,7,10.44,10.64,3.69,4,8.72,8.34,11.58,11.17,10,9.69,19.56,17.78,29.84,27.11,2.6,2.36,8.83,6.8,10.15,9.7,1.16,2.49,1.6,5.88,2.4,8.95s2.16,6.31,2.44,9c.57,4.8-1.22,9.38,0,14.53a9,9,0,0,0,1.37,2.65,231.82,231.82,0,0,0,54.71-49.53c1.19-1.49,2.33-3,3.46-4.47a8.78,8.78,0,0,0-5-2.66m-82-94.52a1.11,1.11,0,0,0-.88,0,2.18,2.18,0,0,1-.23.09.39.39,0,0,1-.25.1c-1.88.73-3.79,1.34-5.39,1.91-.91.32-1.89.61-2.8.91-.19.08-.34.15-.53.21,0,.54.1,1,.16,1.53.45,1.67.92,3.32,1.34,5,2.86-1,5.68-2.07,8.44-3.33.69-.33,1.33-.69,2-1.08-.22-.79-.42-1.59-.66-2.37a26.48,26.48,0,0,0-1.18-2.91m-9.8,10.11a22.69,22.69,0,0,0-1.87-6.28c-.05,0-.06-.11-.09-.14-2,.63-3.92,1.28-5.88,1.87-1.29.43-2.58.87-3.93,1.24-.7,2.08-1.43,4.15-2.1,6.23a2.9,2.9,0,0,0-.14.62c1.09-.16,2.16-.32,3.34-.56a87.71,87.71,0,0,0,9.07-2.41c.56-.16,1.06-.38,1.6-.57m1.7,1.41a70,70,0,0,1,1.39,8,62.73,62.73,0,0,0,8-3.17.67.67,0,0,1,.18-.11,12.68,12.68,0,0,1,1.57-1,40.88,40.88,0,0,0-.81-8.12,4.76,4.76,0,0,0-.66.09,49.57,49.57,0,0,1-9.7,4c0,.08,0,.17,0,.28"/><path class="cls-2" d="M323.89,357.44a11.1,11.1,0,0,0-1.39-4.06,9.43,9.43,0,0,0-5.31-3.95c-5.24-1.39-10.52,2-14.5,5.38a41.91,41.91,0,0,1-2.11-5.88l-3.86-8.22c-1.47-3.56-4.33-5.7-5.08-9.94-7.82-11.48-11.5-27.09-23.28-34.64a50.08,50.08,0,0,0-7.95-8.25c-3.19-5.42-9.52-7.46-11.41-13.8-.43-1.41,0-3.38-.72-4.83-.48-1-1.81-1.29-3.18-2.44-1-.91-2-2.25-2.86-2.9s-1.76-1.14-2.66-1.68c-19.89,21.22-42.13,37.85-64.84,49.26l.63.86c2,3,4.78,5.65,5.24,9.44.18,1.68,1,3.16,1.2,4.77a11.61,11.61,0,0,0,1.23,3.58,14,14,0,0,1,.6,4.46,18.61,18.61,0,0,0,.94,3.48c.13.55-.17,1.13,0,1.66.11.37.52.48.67.82.36.86.18,2.22.42,3.18a19.18,19.18,0,0,1,.77,5.23c-.24,3.67.56,7.49.85,11.14a140.94,140.94,0,0,1,.49,16.56q-.18,4.29-.58,8.54c-.15,1.44-.33,2.88-.52,4.31-.13.9-.07,3.59-.65,4.23-3.07,3.37-4.17,7.82-7,11.14-2.14,2.48-5.38,4.43-8,6.53-1.56,1.28-3.12,2.58-4.7,3.86-1.19,1-2.77,1.8-3.65,3.14a23.7,23.7,0,0,0-1.54,3.25c-1.2,2.55-2.52,5.06-3.82,7.6-.91,1.75-1.55,3.62-2.4,5.38a42.14,42.14,0,0,1-2.82,4.28c-1.14,1.7-1.48,3.73-3,5.26a34.67,34.67,0,0,0-3.05,3.54c-2.26,2.9-3.23,4-5.29,7s-3.91,6.69-6.29,9.23c-2.12,2.25-5.09,4.06-7.5,6s-4.9,3.49-7.48,6.14c-1.62,3.29-1.25,7.11-2,10.59-.31,1.47-1.21,2.56-1.21,4.13,0,1.72.84,3.66,1.21,5.53.68,3.53-.17,8.45,2.8,11.05,3.46,3,9.16,4.52,13.53,4.52,7.3-.68,12.8-1.21,20.27-1.76,1.91-.86,1.45-4.67,1.38-5.3-.09-1.15-.71-1.79,0-2.92,9.84-12.13,17.84-26.08,30-35.83,1.7,2.41,3.8,4.63,5.8,7.25,1.81,2.28,3.58,5.8,5.82,7.25a17.81,17.81,0,0,0,9.2,3.39c4-2.14,2.07-19.07,6.06-25.67,3-.56,5.19-1.93,8-2.65,18-18.15,38.29-36.64,57.63-54.25,2.81-2.56,5.7-5.79,8.49-7.51,5.13-3.15,11.24-4.25,16.47-7,8.51-10,22.43-26.07,20.87-29.53M149.16,503.53c-1.8,1.88-4.78,1.81-11.66,1.52s-6.42-.57-10.35-2.28c-3.29-1.38-4.35-.89-3.61-9.52.79-9.15,7.93-7.46,15.69-5s7.92,3.27,8.3,4.92,1.94,6.56,1.94,6.56.89,2.56-.31,3.81m56.64-30.59c-.25,2.28.23,3.75-2.38,3.35-4.15-.65-4.25-3.89-5.94-6.39a52.24,52.24,0,0,1-3-4.87c1-2.44,1.53-1.51,3.92-2s4.82-1.53,6-1.53.62-.82,1.38,3.81a20.77,20.77,0,0,1,.07,7.64m38.09-100.28c-5.95-2.08-13.22-5.22-21.77-3.37-.09.18-.23.24-.23.48.52-.62,6.51,0,4.82.24-4.69.28-9.94.5-13.57,1.68,6.89-6.65,22-5.18,30.06-.72a25.18,25.18,0,0,1,2.58,1.41c.83,1.77-.21.83-1.89.28m78.53-15a10.54,10.54,0,0,0-2,2.37c-.86.79-.86.88-1.7,1.74-1.48,1.57-1.05,1.57-3,3.06-.93.92-1.46,1.25-3.07,2.63-1.83,1.69-3.05,2.34-5.35,4.18s-3.84,3.34-6.29,5.35a68.58,68.58,0,0,1-7.89,4.51c-1.91,1.18-4.29,2.37-6.88,1.79,2.2-2.1,4.31-4.92,7.5-7.53,4.55-3.68,11.94-4.84,11.63-11.37-.17-3.27-1.35-6.19-2.57-9.14.79-.5,1.66-1,2.27-1.49a34.35,34.35,0,0,1,4.77-2.76,10.18,10.18,0,0,1,6.9-.8c2.43.49,3.84,2.81,5,4.9a3.51,3.51,0,0,1,.63,2.56"/><path class="cls-3" d="M43.61,107.07a250.87,250.87,0,0,0-24.78,51.48,226.48,226.48,0,0,1,28.78-50.48c.28-.38.58-.75.87-1.13l-4.87.13"/><path class="cls-4" d="M266.46,18.58C211.68-22.74,119.23,7.2,58.16,85.24c2.65-.19,5.92-.4,9.25-.66,54.79-55,128.4-72.33,174.78-37.34,52.56,39.67,50.2,131.48-5.28,205.08-28.56,37.86-65.62,63.47-102,74.07,42.64-10,87.59-39.84,121.9-85.34,61-80.88,65.32-180.48,9.67-222.47"/></g></g></svg>