<?xml version="1.0" standalone="no"?>
<!DOCTYPE svg PUBLIC "-//W3C//DTD SVG 20010904//EN"
 "http://www.w3.org/TR/2001/REC-SVG-20010904/DTD/svg10.dtd">
<svg version="1.0" xmlns="http://www.w3.org/2000/svg"
 width="1024.000000pt" height="1024.000000pt" viewBox="0 0 1024.000000 1024.000000"
 preserveAspectRatio="xMidYMid meet">
<metadata>
Created by potrace 1.11, written by Peter Selinger 2001-2013
</metadata>
<g transform="translate(0.000000,1024.000000) scale(0.100000,-0.100000)"
fill="#000000" stroke="none">
<path d="M5849 10236 c-2 -2 -35 -7 -74 -10 -38 -3 -79 -8 -90 -10 -11 -2 -42
-7 -70 -11 -27 -4 -61 -10 -75 -12 -14 -2 -32 -5 -40 -7 -9 -1 -20 -5 -25 -8
-6 -3 -30 -9 -55 -14 -52 -9 -43 -7 -100 -23 -25 -7 -49 -14 -55 -15 -22 -5
-146 -46 -235 -79 -172 -62 -448 -192 -562 -264 -21 -12 -40 -23 -42 -23 -7 0
-131 -77 -188 -117 -26 -18 -50 -33 -54 -33 -3 0 -50 -34 -105 -75 -54 -41
-102 -75 -105 -75 -4 0 -14 -8 -23 -18 -9 -10 -32 -29 -51 -42 -19 -13 -37
-27 -40 -30 -3 -3 -32 -27 -65 -54 -62 -52 -80 -68 -204 -182 -126 -118 -273
-269 -361 -373 -25 -29 -49 -58 -55 -65 -5 -6 -32 -38 -60 -71 -27 -33 -54
-63 -59 -66 -10 -8 2 -32 13 -25 4 3 42 7 85 10 78 5 79 6 125 53 42 43 153
145 221 203 14 12 35 30 48 41 45 38 269 206 308 229 21 14 48 32 58 42 11 10
23 18 27 18 5 0 27 13 51 29 24 15 66 41 93 56 28 15 55 31 60 35 14 11 253
131 290 146 17 6 73 29 125 51 52 22 97 40 100 41 3 0 12 3 20 6 143 49 333
102 395 111 11 1 61 10 110 18 50 9 126 20 170 24 148 13 474 6 545 -12 8 -2
33 -7 55 -10 33 -4 101 -20 215 -50 22 -5 120 -41 155 -56 17 -7 32 -13 35
-13 17 -3 186 -91 188 -98 2 -4 8 -8 14 -8 12 0 177 -113 227 -156 70 -59 188
-181 242 -249 55 -68 159 -219 159 -229 0 -3 13 -27 28 -53 24 -42 42 -79 97
-208 32 -74 102 -308 111 -369 2 -17 6 -42 9 -56 27 -119 47 -329 47 -500 0
-83 -10 -284 -16 -315 -2 -11 -7 -51 -12 -90 -4 -38 -8 -72 -9 -75 0 -3 -5
-32 -10 -65 -5 -33 -9 -62 -10 -65 -2 -9 -25 -114 -29 -135 -2 -11 -12 -49
-21 -85 -9 -36 -18 -69 -19 -75 -3 -12 -35 -124 -41 -143 -3 -7 -5 -16 -6 -20
-3 -13 -76 -214 -103 -282 -13 -36 -36 -89 -50 -117 -14 -29 -26 -56 -26 -59
0 -17 -178 -359 -211 -406 -11 -14 -19 -31 -19 -37 0 -6 -4 -11 -10 -11 -5 0
-10 -6 -10 -13 0 -15 -217 -340 -231 -345 -5 -2 -9 -8 -9 -14 0 -6 -12 -25
-27 -42 -16 -18 -37 -44 -48 -60 -11 -15 -27 -36 -35 -46 -8 -10 -31 -37 -50
-60 -19 -24 -55 -65 -80 -93 -25 -27 -53 -59 -63 -71 -25 -29 -228 -236 -232
-236 -1 0 -20 -17 -42 -37 -74 -70 -128 -118 -203 -178 -41 -33 -80 -64 -86
-70 -6 -5 -20 -16 -30 -23 -11 -7 -68 -48 -129 -92 -60 -43 -116 -79 -122 -80
-7 0 -13 -4 -13 -10 0 -5 -7 -10 -15 -10 -8 0 -15 -4 -15 -10 0 -5 -5 -10 -10
-10 -6 0 -27 -11 -48 -24 -53 -35 -120 -73 -172 -98 -25 -12 -46 -26 -48 -30
-2 -4 -7 -8 -12 -8 -4 0 -57 -23 -116 -51 -60 -28 -113 -52 -119 -53 -5 -2
-27 -10 -49 -19 -21 -9 -40 -17 -41 -17 -10 0 -76 -32 -73 -35 4 -4 92 23 138
42 8 3 17 7 20 8 35 9 120 40 137 51 12 8 30 15 40 17 21 4 89 34 197 88 77
38 79 39 93 20 7 -11 19 -26 26 -33 32 -32 70 -114 88 -190 11 -46 26 -101 34
-123 9 -22 17 -58 19 -80 5 -52 15 -105 26 -130 11 -27 21 -96 25 -175 2 -36
6 -90 9 -120 17 -151 19 -196 19 -335 1 -82 -2 -184 -6 -225 -18 -203 -18
-201 -53 -250 -19 -26 -34 -50 -34 -54 0 -22 -90 -148 -128 -178 -26 -21 -94
-75 -152 -120 -58 -46 -109 -87 -115 -93 -10 -10 -127 -243 -153 -304 -8 -20
-27 -54 -43 -78 -16 -23 -29 -44 -29 -48 0 -9 -67 -112 -87 -133 -27 -29 -53
-61 -105 -132 -26 -36 -51 -69 -56 -75 -4 -5 -10 -14 -12 -20 -21 -57 -105
-153 -185 -211 -22 -16 -42 -31 -45 -34 -3 -3 -34 -28 -70 -55 -106 -80 -103
-74 -126 -255 -1 -14 -9 -48 -17 -75 -12 -42 -12 -58 -1 -95 7 -25 15 -72 18
-106 11 -154 45 -196 193 -242 57 -18 156 -21 273 -8 19 2 73 7 120 10 120 9
153 15 161 28 4 6 7 41 6 77 l0 66 96 128 c53 70 97 132 97 136 0 5 3 11 8 13
4 1 36 41 71 88 36 47 72 94 82 105 103 120 227 244 244 245 6 0 28 -23 50
-51 22 -28 48 -60 58 -72 11 -12 35 -46 54 -75 53 -79 136 -133 226 -147 30
-5 38 -2 52 18 9 14 17 33 19 43 10 51 17 104 21 149 13 134 20 181 41 246 14
43 17 47 83 72 38 15 74 27 80 27 6 0 53 42 104 93 79 78 359 347 487 467 44
41 199 184 289 266 35 33 81 75 102 94 20 19 65 60 99 90 34 30 94 86 134 124
87 84 140 121 217 152 l59 24 98 -20 c53 -12 102 -22 107 -24 6 -1 28 -6 50
-10 22 -5 69 -17 104 -27 35 -11 66 -18 68 -15 13 13 -181 111 -243 122 -12 2
-33 8 -45 12 -21 8 -20 9 10 22 19 8 69 58 132 134 56 66 109 130 118 141 9
11 37 47 61 80 25 33 47 62 50 65 25 24 79 125 86 160 6 28 -16 89 -43 121
-75 89 -192 86 -326 -8 -26 -18 -49 -33 -51 -33 -3 0 -14 26 -26 57 -36 100
-119 272 -153 318 -12 16 -28 47 -35 68 -8 20 -30 65 -51 100 -21 34 -70 127
-110 207 -41 80 -82 157 -92 172 -11 14 -19 31 -19 36 0 6 -3 12 -7 14 -5 2
-27 28 -50 58 -24 30 -59 69 -79 85 -48 40 -145 136 -217 214 -6 7 -56 58
-110 112 -89 90 -144 170 -131 191 10 15 -16 84 -37 98 -12 8 -49 38 -82 67
l-61 52 -44 -44 c-24 -25 -42 -40 -40 -35 2 5 32 39 68 77 36 37 92 99 125
138 33 38 65 75 70 81 6 6 24 28 40 49 17 20 40 50 52 65 12 15 58 76 102 136
44 60 84 114 89 119 22 27 192 297 192 305 0 6 4 10 8 10 4 0 13 12 19 28 7
15 23 45 37 67 14 22 41 72 61 110 20 39 40 77 45 85 5 8 18 33 28 55 10 22
23 49 29 60 73 132 251 608 299 798 24 96 34 140 38 162 2 11 9 40 16 65 7 25
14 59 15 75 2 17 8 57 15 90 6 33 13 76 16 95 2 19 6 49 8 65 29 206 29 646
-1 830 -2 17 -6 44 -8 60 -3 26 -8 52 -29 153 -3 13 -7 31 -10 40 -3 9 -7 28
-10 42 -4 27 -41 146 -59 195 -7 17 -12 32 -13 35 0 3 -4 14 -9 25 -144 356
-349 632 -616 832 -117 87 -309 201 -322 191 -2 -2 -10 2 -18 9 -14 11 -111
52 -139 58 -8 2 -35 11 -60 20 -25 9 -79 24 -120 35 -66 16 -115 25 -250 46
-41 6 -445 15 -451 10z m708 -5360 c-15 -14 -27 -22 -27 -18 0 9 44 50 49 46
2 -2 -8 -15 -22 -28z m-79 -75 c-13 -15 -25 -27 -27 -25 -4 4 39 54 47 54 2 0
-7 -13 -20 -29z m-68 -64 c0 -2 -10 -12 -22 -23 l-23 -19 19 23 c18 21 26 27
26 19z m1829 -1511 c29 -15 74 -75 85 -113 8 -25 -2 -39 -94 -133 -58 -59
-100 -95 -197 -168 -17 -13 -46 -37 -65 -54 -68 -62 -96 -80 -226 -148 -57
-29 -132 -50 -132 -36 0 11 155 163 182 177 14 8 47 26 74 41 124 67 146 134
94 283 -23 68 -27 62 58 112 89 53 167 66 221 39z m-1662 -347 c17 -5 44 -12
60 -15 38 -6 156 -67 161 -83 3 -10 0 -10 -17 -2 -11 7 -21 9 -21 5 0 -3 -6
-2 -12 4 -17 13 -163 59 -219 68 -62 9 -139 11 -174 3 -27 -6 -25 -7 14 -8 61
-1 45 -12 -26 -16 -64 -5 -135 -13 -173 -21 -18 -4 -12 3 22 25 27 17 75 36
115 44 74 15 219 13 270 -4z m-594 -1877 c6 -8 20 -129 19 -157 -1 -42 -11
-115 -16 -124 -7 -10 -39 -8 -71 5 -23 9 -41 29 -58 64 -7 14 -29 53 -50 87
-35 58 -40 92 -13 94 28 2 70 11 104 22 46 15 80 19 85 9z m-1438 -496 c55
-10 192 -53 235 -74 31 -15 38 -26 63 -102 31 -94 36 -145 16 -165 -19 -18
-105 -33 -170 -29 -161 9 -189 14 -258 45 -80 36 -86 45 -83 133 3 97 15 141
47 173 14 14 73 31 95 28 8 -1 33 -6 55 -9z"/>
<path d="M5601 9061 c-14 -4 -26 -13 -29 -21 -2 -10 -1 -11 5 -3 5 6 28 10 58
8 28 -1 43 0 35 3 -8 2 -22 8 -30 12 -8 4 -26 4 -39 1z"/>
<path d="M5367 9043 c-2 -2 -132 -15 -277 -28 -41 -4 -76 -8 -78 -9 -1 -2 11
-17 27 -35 29 -31 29 -31 35 -8 4 16 18 28 46 37 37 12 42 12 64 -9 l23 -22
15 23 c11 17 27 25 52 26 30 2 38 -2 47 -22 l12 -25 18 23 c23 29 59 39 92 27
22 -9 24 -7 20 10 -5 16 -13 19 -50 17 -25 -2 -45 -4 -46 -5z"/>
<path d="M5695 9042 c-12 -13 9 -20 45 -15 34 5 45 2 66 -18 18 -16 27 -20 32
-12 22 36 95 30 107 -9 4 -10 11 -18 17 -18 6 0 9 3 5 6 -3 4 1 13 10 22 14
15 18 14 47 -1 l31 -17 -30 25 c-16 14 -37 25 -45 26 -8 0 -24 3 -35 5 -28 7
-244 12 -250 6z"/>
<path d="M6040 8968 c0 -2 11 -38 24 -81 22 -68 23 -79 10 -92 -9 -8 -22 -15
-30 -15 -17 0 -18 -12 -3 -27 20 -20 0 -34 -39 -27 -42 7 -72 7 -79 0 -3 -2 6
-19 18 -36 20 -26 21 -32 9 -40 -8 -5 -31 -6 -50 -3 -19 4 -55 6 -79 5 -24 -1
-50 3 -57 9 -26 21 -26 2 0 -24 14 -14 27 -22 30 -20 3 3 39 -11 80 -31 55
-26 88 -36 124 -36 35 0 57 -6 75 -21 15 -11 26 -23 25 -27 -1 -4 3 -17 10
-29 7 -12 19 -48 26 -80 13 -52 15 -55 16 -23 7 132 19 184 47 205 62 48 61
47 67 133 4 61 2 82 -7 83 -6 0 -21 3 -32 5 -11 2 -38 7 -60 9 -59 8 -62 11
-70 47 -9 45 -38 118 -47 118 -5 0 -8 -1 -8 -2z"/>
<path d="M5533 8943 c4 -6 2 -26 -4 -44 -14 -41 -30 -61 -24 -31 2 12 0 22 -6
22 -11 0 -2 -64 17 -109 8 -18 14 -37 14 -41 0 -4 -27 -13 -60 -19 -33 -7 -60
-16 -60 -20 0 -9 -47 -32 -75 -37 -46 -7 -221 -57 -232 -66 -7 -6 -13 -7 -13
-4 0 4 -9 2 -20 -4 -19 -10 -24 -4 -61 72 -48 100 -44 64 5 -45 l36 -77 67 26
c38 14 93 35 123 46 30 10 62 22 70 25 20 8 28 10 80 23 25 6 54 16 64 22 11
6 32 12 46 15 23 3 29 -1 35 -24 13 -44 10 -77 -6 -68 -5 4 -22 2 -37 -4 -15
-6 -40 -16 -57 -22 -16 -7 -32 -13 -35 -14 -3 -1 -18 -7 -35 -14 -53 -23 -266
-80 -279 -75 -7 3 -19 16 -26 29 -7 14 -31 41 -52 60 -21 20 -38 43 -38 53 0
9 -11 27 -25 40 -13 13 -27 39 -31 58 -7 38 -9 40 -30 19 -22 -22 -37 -19 -75
15 -42 37 -86 46 -153 32 -28 -6 -71 -14 -96 -18 -25 -3 -54 -8 -65 -10 -11
-3 -40 -6 -65 -9 -25 -2 -58 -6 -75 -9 -16 -3 -52 -7 -80 -11 -27 -3 -57 -7
-65 -9 -8 -3 -40 -7 -71 -11 -31 -3 -67 -8 -80 -10 -13 -3 -41 -7 -64 -10 -22
-4 -51 -8 -65 -10 -14 -2 -45 -7 -70 -10 -25 -3 -52 -8 -60 -10 -8 -2 -35 -6
-60 -9 -25 -3 -56 -8 -70 -10 -50 -9 -105 -18 -125 -20 -84 -9 -195 -31 -195
-38 0 -5 4 -7 9 -4 4 3 32 8 62 10 30 3 65 8 78 10 14 3 54 8 90 11 36 2 77 7
91 10 14 3 45 7 70 10 62 6 119 13 160 19 19 3 55 8 80 11 25 2 54 6 65 9 11
2 47 7 80 10 33 4 67 9 75 11 8 2 38 6 65 10 28 3 57 8 65 10 8 2 37 6 64 10
27 3 53 8 57 10 3 3 26 7 50 9 43 5 57 7 149 22 77 13 112 10 124 -8 18 -29
-4 -41 -119 -64 -11 -2 -33 -6 -48 -10 -16 -3 -38 -7 -50 -8 -12 -2 -40 -6
-62 -9 -22 -4 -60 -9 -85 -13 -25 -3 -88 -14 -140 -24 -52 -10 -107 -21 -121
-23 -14 -3 -73 -14 -130 -26 -57 -11 -115 -23 -129 -25 -14 -3 -50 -10 -80
-16 -30 -6 -66 -13 -80 -15 -14 -2 -74 -13 -135 -24 -129 -23 -325 -57 -375
-65 -36 -6 -70 -12 -117 -21 -16 -3 -41 -8 -58 -10 -16 -2 -46 -7 -65 -10 -57
-10 -96 -14 -245 -30 -213 -23 -661 -23 -780 0 -11 2 -30 4 -42 4 -55 2 3 41
105 72 23 6 42 15 42 19 0 4 -34 6 -76 5 -53 -1 -78 -5 -85 -16 -17 -27 -29
-85 -24 -124 6 -53 44 -172 59 -184 6 -5 38 -12 71 -15 54 -6 77 -9 165 -21
139 -20 194 -22 335 -11 44 4 115 9 159 12 l79 4 -17 -24 c-9 -14 -28 -47 -42
-73 -15 -26 -32 -55 -38 -63 -7 -8 -18 -28 -26 -45 -8 -16 -17 -32 -20 -35 -3
-3 -14 -23 -25 -45 -11 -22 -34 -66 -52 -98 -18 -31 -33 -60 -33 -62 -1 -3
-20 -46 -44 -97 -94 -204 -204 -481 -130 -328 15 30 28 60 30 65 1 6 36 73 77
150 96 183 111 209 118 215 3 3 12 16 19 30 21 41 163 255 172 258 4 2 8 8 8
14 0 11 85 124 101 134 6 3 38 8 72 10 83 6 117 10 147 17 14 4 43 9 64 12 21
3 48 7 60 10 23 5 20 5 221 40 77 13 156 26 175 29 19 3 60 10 90 16 30 6 71
13 90 16 19 3 59 10 89 15 30 6 64 12 75 14 12 1 59 9 106 18 47 9 101 19 120
22 19 3 42 8 50 10 8 2 32 6 54 10 21 3 41 7 45 9 3 2 28 7 55 10 27 4 52 9
55 11 3 1 23 6 43 9 21 3 81 15 134 27 53 11 106 22 118 25 63 12 77 17 93 38
43 54 119 78 147 47 15 -18 90 -208 86 -220 -2 -6 117 -59 137 -62 10 0 33 -1
51 0 33 1 34 2 28 39 -7 50 24 113 72 144 34 23 66 37 84 38 5 0 24 9 43 20
35 20 35 20 47 0 7 -11 20 -20 29 -20 24 0 55 -40 78 -103 11 -32 21 -60 21
-62 0 -2 -12 0 -27 4 -69 19 -232 -34 -286 -93 -19 -21 -18 -42 9 -176 37
-181 37 -192 -16 -330 -34 -91 -60 -173 -60 -194 0 -16 -309 -330 -361 -367
l-29 -21 -6 30 -6 30 -35 -21 c-37 -22 -39 -34 -13 -102 l11 -29 30 32 c17 18
32 32 34 32 13 0 -9 -47 -30 -65 -21 -19 -24 -28 -19 -66 2 -24 6 -72 8 -106
4 -62 4 -62 -33 -86 -73 -49 -232 -113 -325 -131 -11 -3 -46 -10 -76 -16 -72
-14 -151 -23 -225 -24 -62 -1 -113 17 -153 54 -12 11 -24 20 -27 20 -3 0 -49
33 -103 74 -128 97 -155 129 -165 194 -7 41 8 42 17 1 3 -16 12 -37 21 -45 8
-8 18 -21 22 -28 9 -14 200 -159 235 -177 13 -7 25 -15 28 -18 8 -10 87 -51
98 -51 9 0 46 84 57 125 1 6 6 18 10 29 7 17 -10 40 -25 31 -10 -6 -125 -18
-163 -17 -43 1 -93 27 -115 60 -15 23 -15 23 11 11 15 -7 27 -16 27 -20 0 -13
63 -23 125 -20 156 9 157 9 181 85 l20 63 -131 -34 c-71 -18 -142 -35 -157
-38 -15 -3 -37 -9 -50 -13 -13 -5 -33 -7 -45 -6 -13 1 -30 2 -38 3 -23 2 -58
47 -72 94 -18 60 -15 79 5 31 21 -51 41 -78 68 -92 24 -12 22 -13 144 17 47
12 94 23 104 26 10 2 33 9 50 14 17 6 43 12 58 15 31 5 24 3 283 86 196 63
337 126 341 152 4 32 -11 39 -53 24 -23 -8 -55 -17 -72 -19 -29 -5 -32 -2 -51
41 -35 79 -35 85 8 105 65 31 112 81 112 120 0 8 -45 36 -105 65 -94 46 -108
56 -133 98 -68 115 -168 231 -224 260 -30 15 -137 55 -148 54 -3 0 -27 7 -53
16 -71 23 -226 -3 -322 -54 -83 -45 -175 -145 -227 -247 -94 -184 -107 -293
-52 -431 25 -62 152 -317 140 -281 -3 9 -1 17 4 17 6 0 10 -10 11 -22 3 -65 8
-78 39 -105 18 -15 39 -32 46 -36 8 -4 19 -17 25 -28 10 -19 8 -20 -13 -14
-13 4 1 -11 32 -33 30 -22 58 -38 62 -36 11 7 47 -16 101 -63 27 -24 52 -41
57 -38 4 2 16 -2 26 -10 18 -13 17 -13 -8 -11 -32 4 -63 23 -107 66 -33 34
-45 35 -136 16 -11 -3 -28 -5 -37 -5 -26 -1 -22 -28 17 -110 32 -66 41 -101
44 -164 1 -9 23 -33 49 -52 27 -19 49 -40 49 -47 11 -202 26 -308 50 -348 9
-14 41 -49 72 -78 47 -46 143 -137 415 -397 41 -39 287 -262 355 -321 18 -16
54 -48 80 -72 25 -23 97 -86 159 -138 114 -97 157 -149 166 -201 3 -15 22 -86
42 -158 37 -133 39 -151 34 -345 -2 -64 1 -94 14 -118 l16 -32 48 31 c121 77
412 299 420 321 2 4 7 8 12 8 5 0 21 12 37 28 16 15 69 63 117 107 102 92 87
78 191 187 86 90 139 150 195 218 19 23 47 56 63 73 15 16 27 33 27 37 0 4 12
19 26 33 36 36 17 67 -58 91 -10 3 -18 15 -18 28 0 13 -25 60 -55 105 -30 46
-55 87 -55 93 0 5 -3 10 -8 10 -4 0 -16 17 -27 38 -11 20 -23 39 -26 42 -3 3
-14 21 -24 40 -10 19 -26 46 -35 60 -46 67 -120 190 -120 199 0 6 -4 11 -10
11 -5 0 -10 5 -10 11 0 19 -68 107 -116 152 -25 23 -72 67 -103 97 -70 66
-142 133 -241 220 -109 97 -124 110 -131 110 -4 0 -10 7 -13 16 -8 20 248 540
342 695 61 102 97 173 92 181 -1 2 3 16 9 31 6 15 13 42 16 60 3 18 8 40 11
49 3 9 6 25 8 35 2 10 9 36 14 58 6 22 13 51 15 65 3 14 10 45 17 70 7 25 14
52 15 60 2 8 13 51 25 95 11 44 23 93 26 109 3 16 11 34 18 40 37 30 61 96 35
96 -6 0 -24 9 -40 21 -21 15 -37 19 -61 14 -97 -19 -201 7 -210 53 -8 39 7 65
63 108 58 45 76 70 42 60 -10 -3 -35 -7 -57 -11 -35 -5 -37 -4 -26 11 8 8 31
24 52 35 21 11 38 23 38 27 0 8 -101 61 -167 87 -41 16 -44 20 -64 89 -31 103
-32 127 -10 182 21 54 16 79 -16 79 -31 0 -43 15 -43 55 0 21 -5 42 -12 46 -6
4 -8 3 -5 -3z m-1806 -1965 c-3 -7 -5 -2 -5 12 0 14 2 19 5 13 2 -7 2 -19 0
-25z"/>
<path d="M3278 8573 c6 -2 18 -2 25 0 6 3 1 5 -13 5 -14 0 -19 -2 -12 -5z"/>
<path d="M4640 7073 c-52 -18 -96 -32 -97 -33 -2 0 27 -123 30 -126 3 -3 92
28 141 49 21 9 42 17 46 17 25 0 13 99 -14 118 -6 4 -54 -7 -106 -25z"/>
<path d="M4409 6997 l-97 -31 -17 -55 c-10 -31 -20 -61 -22 -68 -6 -16 27 -11
157 21 78 20 120 36 120 45 0 17 -31 110 -38 114 -4 3 -50 -9 -103 -26z"/>
<path d="M4727 6935 c-27 -13 -70 -31 -96 -40 -39 -13 -47 -19 -45 -38 1 -12
3 -22 4 -22 1 0 4 -11 6 -25 3 -14 7 -34 9 -45 2 -11 4 -28 4 -37 1 -17 5 -16
54 3 28 11 61 23 72 26 11 4 22 9 25 12 3 3 14 11 25 17 15 8 20 21 20 50 -1
53 -14 124 -23 123 -4 0 -29 -11 -55 -24z"/>
<path d="M4480 6849 c-36 -11 -73 -21 -83 -24 -10 -2 -27 -7 -37 -10 -10 -3
-36 -8 -56 -10 -37 -3 -64 -25 -64 -52 0 -7 -11 -41 -25 -74 l-25 -61 73 6
c87 9 230 39 280 60 27 11 37 21 37 37 0 37 -22 149 -29 148 -3 0 -35 -9 -71
-20z"/>
<path d="M3695 6828 c18 -24 44 -43 50 -36 1 2 -14 17 -34 33 -35 30 -35 30
-16 3z"/>
<path d="M4720 3755 c-14 -8 -20 -14 -14 -15 5 0 19 7 30 15 24 18 16 19 -16
0z"/>
</g>
</svg>
